<?xml version="1.0" encoding="UTF-8" standalone="no"?>
<svg
   xmlns:dc="http://purl.org/dc/elements/1.1/"
   xmlns:cc="http://creativecommons.org/ns#"
   xmlns:rdf="http://www.w3.org/1999/02/22-rdf-syntax-ns#"
   xmlns:svg="http://www.w3.org/2000/svg"
   xmlns="http://www.w3.org/2000/svg"
   xmlns:sodipodi="http://sodipodi.sourceforge.net/DTD/sodipodi-0.dtd"
   xmlns:inkscape="http://www.inkscape.org/namespaces/inkscape"
   enable-background="new 0 0 64 64"
   id="Layer_1"
   version="1.1"
   viewBox="0 0 64 64"
   xml:space="preserve"
   sodipodi:docname="s1.svg"
   inkscape:version="0.92.1 r15371"><metadata
     id="metadata4568"><rdf:RDF><cc:Work
         rdf:about=""><dc:format>image/svg+xml</dc:format><dc:type
           rdf:resource="http://purl.org/dc/dcmitype/StillImage" /><dc:title></dc:title></cc:Work></rdf:RDF></metadata><defs
     id="defs4566" /><sodipodi:namedview
     pagecolor="#ffffff"
     bordercolor="#666666"
     borderopacity="1"
     objecttolerance="10"
     gridtolerance="10"
     guidetolerance="10"
     inkscape:pageopacity="0"
     inkscape:pageshadow="2"
     inkscape:window-width="3840"
     inkscape:window-height="2035"
     id="namedview4564"
     showgrid="false"
     inkscape:zoom="20.85965"
     inkscape:cx="8.8930568"
     inkscape:cy="36.174119"
     inkscape:window-x="-13"
     inkscape:window-y="-13"
     inkscape:window-maximized="1"
     inkscape:current-layer="Layer_1" /><path
     d="M36,21H7c-2.2,0-4,1.8-4,4v18c0,2.2,1.8,4,4,4h4v6l8-6h13.3c2.2,0,4.5-2.3,4.5-4.5"
     fill="#3B97D3"
     id="path4531" /><path
     d="M26,35V17c0-2.2,1.8-4,4-4h27c2.2,0,4,1.8,4,4v18c0,2.2-1.8,4-4,4h-5v6l-8.7-6H30C27.8,39,26,37.2,26,35z"
     fill="#FFD766"
     id="path4533" /><path
     d="  M26,35V17c0-2.2,1.8-4,4-4h27c2.2,0,4,1.8,4,4v18c0,2.2-1.8,4-4,4h-5v6l-8.7-6H30C27.8,39,26,37.2,26,35z"
     fill="none"
     stroke="#2C3E50"
     stroke-linecap="round"
     stroke-linejoin="round"
     stroke-miterlimit="10"
     stroke-width="2"
     id="path4535" /><path
     d="  M22,21H7c-2.2,0-4,1.8-4,4v18c0,2.2,1.8,4,4,4h4v6l8-6h13.3c2.2,0,4.5-2.3,4.5-4.5"
     fill="none"
     stroke="#2C3E50"
     stroke-linecap="round"
     stroke-linejoin="round"
     stroke-miterlimit="10"
     stroke-width="2"
     id="path4537" /></svg>