<?xml version="1.0" encoding="UTF-8" standalone="no"?>
<svg
   xmlns:dc="http://purl.org/dc/elements/1.1/"
   xmlns:cc="http://creativecommons.org/ns#"
   xmlns:rdf="http://www.w3.org/1999/02/22-rdf-syntax-ns#"
   xmlns:svg="http://www.w3.org/2000/svg"
   xmlns="http://www.w3.org/2000/svg"
   xmlns:sodipodi="http://sodipodi.sourceforge.net/DTD/sodipodi-0.dtd"
   xmlns:inkscape="http://www.inkscape.org/namespaces/inkscape"
   enable-background="new 0 0 64 64"
   id="Layer_1"
   version="1.1"
   viewBox="0 0 310 150"
   xml:space="preserve"
   sodipodi:docname="s2-wide.svg"
   inkscape:version="0.92.1 r15371"
   inkscape:export-filename="Y:\TDDOWNLOAD\s2.png"
   inkscape:export-xdpi="120.15484"
   inkscape:export-ydpi="120.15484"
   width="310"
   height="150"><metadata
     id="metadata4568"><rdf:RDF><cc:Work
         rdf:about=""><dc:format>image/svg+xml</dc:format><dc:type
           rdf:resource="http://purl.org/dc/dcmitype/StillImage" /><dc:title></dc:title></cc:Work></rdf:RDF></metadata><defs
     id="defs4566" /><sodipodi:namedview
     pagecolor="#ffffff"
     bordercolor="#666666"
     borderopacity="1"
     objecttolerance="10"
     gridtolerance="10"
     guidetolerance="10"
     inkscape:pageopacity="0"
     inkscape:pageshadow="2"
     inkscape:window-width="3840"
     inkscape:window-height="2035"
     id="namedview4564"
     showgrid="false"
     inkscape:zoom="5.2149125"
     inkscape:cx="137.54334"
     inkscape:cy="40.008391"
     inkscape:window-x="-13"
     inkscape:window-y="-13"
     inkscape:window-maximized="1"
     inkscape:current-layer="Layer_1" /><path
     d="M 161.00914,44.527852 H 85.270351 c -5.745701,0 -10.446729,4.701028 -10.446729,10.446729 v 47.010279 c 0,5.7457 4.701028,10.44673 10.446729,10.44673 H 95.71708 v 15.67009 l 20.89346,-15.67009 h 34.73537 c 5.7457,0 11.75257,-6.00687 11.75257,-11.75257"
     id="path4531"
     inkscape:connector-curvature="0"
     style="fill:#3b97d3;stroke-width:2.61168218" /><path
     d="m 134.89231,81.091403 v -47.01028 c 0,-5.745701 4.70103,-10.446729 10.44673,-10.446729 h 70.51542 c 5.7457,0 10.44673,4.701028 10.44673,10.446729 v 47.01028 c 0,5.745701 -4.70103,10.446732 -10.44673,10.446732 H 202.79605 V 107.20822 L 180.07442,91.538135 h -34.73538 c -5.7457,0 -10.44673,-4.701031 -10.44673,-10.446732 z"
     id="path4533"
     inkscape:connector-curvature="0"
     style="fill:#ffd766;stroke-width:2.61168218" /><path
     d="m 134.89231,81.091403 v -47.01028 c 0,-5.745701 4.70103,-10.446729 10.44673,-10.446729 h 70.51542 c 5.7457,0 10.44673,4.701028 10.44673,10.446729 v 47.01028 c 0,5.745701 -4.70103,10.446732 -10.44673,10.446732 H 202.79605 V 107.20822 L 180.07442,91.538135 h -34.73538 c -5.7457,0 -10.44673,-4.701031 -10.44673,-10.446732 z"
     stroke-miterlimit="10"
     id="path4535"
     inkscape:connector-curvature="0"
     style="fill:none;stroke:#2c3e50;stroke-width:5.22336435;stroke-linecap:round;stroke-linejoin:round;stroke-miterlimit:10" /><path
     d="M 124.44559,44.527852 H 85.270351 c -5.745701,0 -10.446729,4.701028 -10.446729,10.446729 v 47.010279 c 0,5.7457 4.701028,10.44673 10.446729,10.44673 H 95.71708 v 15.67009 l 20.89346,-15.67009 h 34.73537 c 5.7457,0 11.75257,-6.00687 11.75257,-11.75257"
     stroke-miterlimit="10"
     id="path4537"
     inkscape:connector-curvature="0"
     style="fill:none;stroke:#2c3e50;stroke-width:5.22336435;stroke-linecap:round;stroke-linejoin:round;stroke-miterlimit:10" /><text
     xml:space="preserve"
     style="font-style:normal;font-weight:normal;font-size:104.46729279px;line-height:1.25;font-family:sans-serif;letter-spacing:0px;word-spacing:0px;fill:#000000;fill-opacity:1;stroke:none;stroke-width:2.61168218"
     x="153.62877"
     y="74.822502"
     id="text4572"><tspan
       sodipodi:role="line"
       id="tspan4570"
       x="153.62877"
       y="74.822502"
       style="font-style:normal;font-variant:normal;font-weight:normal;font-stretch:normal;font-size:52.23364639px;font-family:HakusyuKaisyo_kk;-inkscape-font-specification:HakusyuKaisyo_kk;fill:#2c3e50;fill-opacity:1;stroke-width:2.61168218">あ</tspan></text>
<text
     xml:space="preserve"
     style="font-style:normal;font-weight:normal;font-size:104.46729279px;line-height:1.25;font-family:sans-serif;letter-spacing:0px;word-spacing:0px;fill:#000000;fill-opacity:1;stroke:none;stroke-width:2.61168218"
     x="96.28598"
     y="96.858131"
     id="text4576"><tspan
       sodipodi:role="line"
       id="tspan4574"
       x="96.28598"
       y="96.858131"
       style="font-style:normal;font-variant:normal;font-weight:normal;font-stretch:normal;font-size:52.23364639px;font-family:'Noto Sans CJK JP';-inkscape-font-specification:'Noto Sans CJK JP';fill:#2c3e50;fill-opacity:1;stroke-width:2.61168218">A</tspan></text>
</svg>