<?xml version="1.0" encoding="UTF-8" standalone="no"?>
<svg
   xmlns:dc="http://purl.org/dc/elements/1.1/"
   xmlns:cc="http://creativecommons.org/ns#"
   xmlns:rdf="http://www.w3.org/1999/02/22-rdf-syntax-ns#"
   xmlns:svg="http://www.w3.org/2000/svg"
   xmlns="http://www.w3.org/2000/svg"
   xmlns:sodipodi="http://sodipodi.sourceforge.net/DTD/sodipodi-0.dtd"
   xmlns:inkscape="http://www.inkscape.org/namespaces/inkscape"
   enable-background="new 0 0 64 64"
   id="Layer_1"
   version="1.1"
   viewBox="0 0 64 64"
   xml:space="preserve"
   sodipodi:docname="s2.svg"
   inkscape:version="0.92.1 r15371"><metadata
     id="metadata4568"><rdf:RDF><cc:Work
         rdf:about=""><dc:format>image/svg+xml</dc:format><dc:type
           rdf:resource="http://purl.org/dc/dcmitype/StillImage" /><dc:title></dc:title></cc:Work></rdf:RDF></metadata><defs
     id="defs4566" /><sodipodi:namedview
     pagecolor="#ffffff"
     bordercolor="#666666"
     borderopacity="1"
     objecttolerance="10"
     gridtolerance="10"
     guidetolerance="10"
     inkscape:pageopacity="0"
     inkscape:pageshadow="2"
     inkscape:window-width="3840"
     inkscape:window-height="2035"
     id="namedview4564"
     showgrid="false"
     inkscape:zoom="20.85965"
     inkscape:cx="31.646615"
     inkscape:cy="28.705632"
     inkscape:window-x="-13"
     inkscape:window-y="-13"
     inkscape:window-maximized="1"
     inkscape:current-layer="Layer_1" /><path
     d="M36,21H7c-2.2,0-4,1.8-4,4v18c0,2.2,1.8,4,4,4h4v6l8-6h13.3c2.2,0,4.5-2.3,4.5-4.5"
     fill="#3B97D3"
     id="path4531" /><path
     d="M26,35V17c0-2.2,1.8-4,4-4h27c2.2,0,4,1.8,4,4v18c0,2.2-1.8,4-4,4h-5v6l-8.7-6H30C27.8,39,26,37.2,26,35z"
     fill="#FFD766"
     id="path4533" /><path
     d="  M26,35V17c0-2.2,1.8-4,4-4h27c2.2,0,4,1.8,4,4v18c0,2.2-1.8,4-4,4h-5v6l-8.7-6H30C27.8,39,26,37.2,26,35z"
     fill="none"
     stroke="#2C3E50"
     stroke-linecap="round"
     stroke-linejoin="round"
     stroke-miterlimit="10"
     stroke-width="2"
     id="path4535" /><path
     d="  M22,21H7c-2.2,0-4,1.8-4,4v18c0,2.2,1.8,4,4,4h4v6l8-6h13.3c2.2,0,4.5-2.3,4.5-4.5"
     fill="none"
     stroke="#2C3E50"
     stroke-linecap="round"
     stroke-linejoin="round"
     stroke-miterlimit="10"
     stroke-width="2"
     id="path4537" /><text
     xml:space="preserve"
     style="font-style:normal;font-weight:normal;font-size:40px;line-height:1.25;font-family:sans-serif;letter-spacing:0px;word-spacing:0px;fill:#000000;fill-opacity:1;stroke:none"
     x="33.174095"
     y="32.599667"
     id="text4572"><tspan
       sodipodi:role="line"
       id="tspan4570"
       x="33.174095"
       y="32.599667"
       style="font-style:normal;font-variant:normal;font-weight:normal;font-stretch:normal;font-size:20px;font-family:HakusyuKaisyo_kk;-inkscape-font-specification:HakusyuKaisyo_kk;fill:#2c3e50;fill-opacity:1">あ</tspan></text>
<text
     xml:space="preserve"
     style="font-style:normal;font-weight:normal;font-size:40px;line-height:1.25;font-family:sans-serif;letter-spacing:0px;word-spacing:0px;fill:#000000;fill-opacity:1;stroke:none"
     x="11.21783"
     y="41.037006"
     id="text4576"><tspan
       sodipodi:role="line"
       id="tspan4574"
       x="11.21783"
       y="41.037006"
       style="font-style:normal;font-variant:normal;font-weight:normal;font-stretch:normal;font-size:20px;font-family:'Noto Sans CJK JP';-inkscape-font-specification:'Noto Sans CJK JP';fill:#2c3e50;fill-opacity:1">A</tspan></text>
</svg>